<?xml version="1.0" standalone="no"?><!DOCTYPE svg PUBLIC "-//W3C//DTD SVG 1.1//EN" "http://www.w3.org/Graphics/SVG/1.1/DTD/svg11.dtd"><svg t="1679813405274" class="icon" viewBox="0 0 1024 1024" version="1.1" xmlns="http://www.w3.org/2000/svg" p-id="11471" xmlns:xlink="http://www.w3.org/1999/xlink" width="16" height="16"><path d="M938.666667 128v768H85.333333V128h853.333334z m-42.666667 170.666667H128v554.666666h768V298.666667z m-85.333333-128a42.666667 42.666667 0 1 0 0 85.333333 42.666667 42.666667 0 0 0 0-85.333333z m-128 0a42.666667 42.666667 0 1 0 0 85.333333 42.666667 42.666667 0 0 0 0-85.333333z m-128 0a42.666667 42.666667 0 1 0 0 85.333333 42.666667 42.666667 0 0 0 0-85.333333z" p-id="11472"></path><path d="M219.818667 474.453333v-34.816h-34.816v34.816h34.816z m0 208.213334v-173.056h-34.816V682.666667h34.816z m67.925333 0v-145.749334h25.941333v-27.306666h-25.941333v-25.258667c0-7.978667 3.413333-11.946667 10.24-11.946667h15.701333v-32.768h-16.042666c-5.674667 0-11.221333 0.810667-16.554667 2.389334a34.858667 34.858667 0 0 0-14.165333 8.192 40.832 40.832 0 0 0-10.24 14.506666 53.845333 53.845333 0 0 0-3.754667 21.333334v23.552h-17.066667v27.306666h17.066667V682.666667h34.816z m71.338667 0v-102.741334c0-7.04 1.152-12.970667 3.413333-17.749333a32.853333 32.853333 0 0 1 8.874667-11.605333c3.413333-2.986667 7.253333-5.077333 11.434666-6.314667a41.472 41.472 0 0 1 11.776-1.877333c3.626667 0 7.168 0.682667 10.581334 2.048v-36.864c-10.026667 0-18.432 1.834667-25.258667 5.461333-6.826667 3.626667-13.781333 8.661333-20.821333 15.018667v-18.432H324.266667V682.666667h34.816z m91.818666 2.048c8.405333 0 14.933333-1.706667 19.626667-5.12 4.693333-3.413333 9.258667-8.32 13.824-14.677334h0.682667V682.666667h34.816v-120.490667c0-9.088-1.365333-17.066667-4.096-23.893333a50.048 50.048 0 0 0-10.922667-17.066667 46.762667 46.762667 0 0 0-16.725333-10.24c-6.4-2.261333-13.226667-3.413333-20.48-3.413333-7.978667 0-15.146667 1.28-21.504 3.925333-6.4 2.602667-11.818667 6.186667-16.384 10.752-9.557333 9.557333-14.805333 22.058667-15.701334 37.546667h33.792a21.077333 21.077333 0 0 1 7.338667-12.970667 19.626667 19.626667 0 0 1 12.458667-4.437333c6.613333 0 11.136 1.92 13.653333 5.802666 2.517333 3.84 3.754667 8.746667 3.754667 14.677334v18.090666a41.386667 41.386667 0 0 0-5.12-0.341333 21.205333 21.205333 0 0 1-4.096-0.341333 19.2 19.2 0 0 0-3.754667-0.341334h-3.754667c-10.922667 0-19.925333 1.194667-26.965333 3.584a37.12 37.12 0 0 0-16.725333 10.752 41.130667 41.130667 0 0 0-8.874667 18.602667 123.392 123.392 0 0 0-2.389333 25.770667c0 9.557333 1.194667 17.365333 3.584 23.381333 2.389333 6.016 5.546667 10.666667 9.386666 13.824 3.84 3.413333 7.893333 5.76 12.117334 6.997333 4.224 1.28 8.362667 1.877333 12.458666 1.877334z m15.36-30.72a15.914667 15.914667 0 0 1-13.312-6.144 25.386667 25.386667 0 0 1-4.778666-16.042667c0-9.344 2.688-15.786667 8.021333-19.285333a34.218667 34.218667 0 0 1 19.285333-5.290667c2.517333 0 5.674667 0.341333 9.557334 1.024v23.552c0 7.04-1.664 12.501333-4.949334 16.384a17.194667 17.194667 0 0 1-13.824 5.802667zM580.266667 682.666667v-116.394667c0-7.722667 1.28-13.653333 3.754666-17.749333 2.517333-4.096 7.04-6.144 13.653334-6.144a15.36 15.36 0 0 1 12.629333 5.461333c2.986667 3.626667 4.437333 8.661333 4.437333 15.018667V682.666667h34.816v-116.394667c0-7.722667 1.28-13.653333 3.754667-17.749333 2.517333-4.096 7.04-6.144 13.653333-6.144a15.36 15.36 0 0 1 12.629334 5.461333c2.986667 3.626667 4.437333 8.661333 4.437333 15.018667V682.666667h34.816v-132.778667c0-7.722667-1.152-14.293333-3.413333-19.626667a38.229333 38.229333 0 0 0-8.874667-13.141333 32.512 32.512 0 0 0-12.288-7.338667 42.965333 42.965333 0 0 0-13.312-2.218666c-9.344 0-16.64 1.706667-21.845333 5.12-5.248 3.413333-10.026667 7.509333-14.336 12.288a55.936 55.936 0 0 0-12.288-11.946667 31.061333 31.061333 0 0 0-18.773334-5.461333 33.834667 33.834667 0 0 0-19.626666 5.290666 49.493333 49.493333 0 0 0-13.141334 13.482667H580.266667v-16.725333h-34.816V682.666667h34.816z m216.064 2.048c7.978667 0 15.146667-1.365333 21.504-4.096 6.4-2.730667 11.818667-6.485333 16.384-11.264 9.344-9.344 13.994667-21.632 13.994666-36.864h-34.816a31.232 31.232 0 0 1-3.925333 11.605333c-2.133333 3.84-6.528 5.802667-13.141333 5.802667a17.194667 17.194667 0 0 1-12.458667-4.437334c-3.072-2.986667-4.608-7.168-4.608-12.629333v-23.552h68.949333v-47.786667c0-15.488-4.565333-28.330667-13.653333-38.570666a48.554667 48.554667 0 0 0-16.554667-11.264 55.338667 55.338667 0 0 0-21.674666-4.096 53.333333 53.333333 0 0 0-27.818667 6.826666 47.061333 47.061333 0 0 0-17.578667 18.090667c-2.517333 4.565333-4.224 9.813333-5.12 15.701333-0.896 5.930667-1.365333 12.373333-1.365333 19.456v57.002667c0 7.04 0.426667 13.525333 1.365333 19.456 0.896 5.930667 2.602667 11.136 5.12 15.701333 4.096 7.509333 9.941333 13.525333 17.578667 18.090667 7.637333 4.565333 16.896 6.826667 27.818667 6.826667z m17.066666-102.741334h-34.133333v-19.797333c0-6.613333 1.536-11.52 4.608-14.848a16.213333 16.213333 0 0 1 12.458667-4.949333 16.213333 16.213333 0 0 1 12.458666 4.949333c3.072 3.285333 4.608 8.234667 4.608 14.848v19.797333z" p-id="11473"></path></svg>
