<?xml version="1.0" standalone="no"?><!DOCTYPE svg PUBLIC "-//W3C//DTD SVG 1.1//EN" "http://www.w3.org/Graphics/SVG/1.1/DTD/svg11.dtd"><svg t="1680704815436" class="icon" viewBox="0 0 1024 1024" version="1.1" xmlns="http://www.w3.org/2000/svg" p-id="2754" xmlns:xlink="http://www.w3.org/1999/xlink" width="16" height="16"><path d="M512 896C299.922286 896 128 724.077714 128 512S299.922286 128 512 128 896 299.922286 896 512 724.077714 896 512 896z m0-36.571429a347.428571 347.428571 0 1 0 0-694.857142 347.428571 347.428571 0 0 0 0 694.857142z m-191.853714-152.100571a18.285714 18.285714 0 0 1-34.852572-11.008 236.288 236.288 0 0 1 35.547429-69.668571A237.348571 237.348571 0 0 1 512 530.285714a237.348571 237.348571 0 0 1 212.333714 130.742857c5.741714 11.337143 10.532571 23.149714 14.372572 35.291429a18.285714 18.285714 0 0 1-34.852572 11.008 199.716571 199.716571 0 0 0-30.098285-58.88A200.777143 200.777143 0 0 0 512 566.857143a200.777143 200.777143 0 0 0-179.712 110.665143 199.716571 199.716571 0 0 0-12.141714 29.805714zM512 493.714286a128 128 0 1 1 0-256 128 128 0 0 1 0 256z m0-36.571429a91.428571 91.428571 0 1 0 0-182.857143 91.428571 91.428571 0 0 0 0 182.857143z" p-id="2755"></path></svg>
